<?xml version="1.0" encoding="UTF-8"?>
<svg xmlns="http://www.w3.org/2000/svg" xmlns:xlink="http://www.w3.org/1999/xlink" width="46px" height="44px" viewBox="0 0 46 44" version="1.1">
<g id="surface1">
<path style=" stroke:none;fill-rule:evenodd;fill:rgb(98.431373%,98.431373%,95.686275%);fill-opacity:1;" d="M 0 22 L 0 44 L 46 44 L 46 0 L 0 0 L 0 22 M 35.226562 15.835938 C 38.3125 16.394531 38.917969 19.851562 36.140625 21.058594 C 35.425781 21.367188 34.324219 21.484375 33.515625 21.339844 L 33.136719 21.269531 L 32.84375 21.410156 C 32.417969 21.609375 31.457031 21.585938 31.371094 21.371094 C 31.339844 21.292969 31.488281 21.070312 31.710938 20.863281 L 31.890625 20.695312 L 31.613281 20.429688 C 29.386719 18.300781 31.808594 15.21875 35.226562 15.835938 M 32.613281 18.273438 C 32.453125 18.351562 32.320312 18.601562 32.363281 18.753906 C 32.453125 19.09375 32.871094 19.234375 33.148438 19.011719 C 33.574219 18.667969 33.113281 18.035156 32.613281 18.273438 M 34.113281 18.300781 C 33.835938 18.460938 33.808594 18.765625 34.050781 18.996094 C 34.242188 19.179688 34.5 19.171875 34.707031 18.976562 C 35.109375 18.589844 34.605469 18.011719 34.113281 18.300781 M 35.691406 18.265625 C 35.363281 18.445312 35.351562 18.898438 35.667969 19.054688 C 36.144531 19.292969 36.621094 18.726562 36.246094 18.367188 C 36.113281 18.238281 35.832031 18.1875 35.691406 18.265625 M 10.121094 18.953125 C 10.179688 18.980469 10.308594 19.117188 10.410156 19.265625 C 11.332031 20.605469 13.308594 23.53125 13.328125 23.574219 C 13.339844 23.605469 13.378906 23.632812 13.414062 23.632812 C 13.464844 23.632812 13.476562 23.25 13.488281 21.28125 L 13.5 18.925781 L 14.082031 18.914062 C 14.402344 18.910156 14.710938 18.914062 14.769531 18.925781 L 14.871094 18.949219 L 14.871094 22.492188 C 14.871094 25.652344 14.863281 26.039062 14.796875 26.101562 C 14.710938 26.183594 13.550781 26.199219 13.371094 26.121094 C 13.292969 26.085938 12.757812 25.324219 11.675781 23.714844 C 10.808594 22.417969 10.066406 21.355469 10.035156 21.355469 C 9.984375 21.355469 9.972656 21.746094 9.972656 23.683594 C 9.972656 25.789062 9.964844 26.019531 9.898438 26.089844 C 9.796875 26.199219 8.75 26.207031 8.589844 26.101562 L 8.488281 26.035156 L 8.488281 18.90625 L 9.25 18.90625 C 9.707031 18.90625 10.058594 18.925781 10.121094 18.953125 M 19.390625 20.84375 C 20.730469 21.234375 21.574219 22.503906 21.382812 23.839844 C 20.992188 26.582031 17.109375 27.175781 15.859375 24.683594 C 14.753906 22.480469 16.917969 20.125 19.390625 20.84375 M 25.804688 20.878906 C 26.070312 21.003906 26.546875 21.421875 26.546875 21.53125 C 26.546875 21.617188 26.644531 21.558594 26.914062 21.296875 C 27.898438 20.363281 29.441406 20.570312 30.03125 21.714844 C 30.261719 22.167969 30.277344 22.316406 30.277344 24.242188 C 30.277344 26.367188 30.355469 26.167969 29.542969 26.167969 C 28.773438 26.167969 28.847656 26.359375 28.832031 24.339844 C 28.820312 22.835938 28.808594 22.648438 28.738281 22.492188 C 28.359375 21.695312 27.160156 21.820312 26.910156 22.683594 C 26.882812 22.773438 26.863281 23.476562 26.863281 24.375 C 26.863281 25.902344 26.851562 26.046875 26.710938 26.136719 C 26.621094 26.191406 25.53125 26.171875 25.480469 26.113281 C 25.449219 26.078125 25.425781 25.476562 25.414062 24.382812 C 25.402344 23.113281 25.386719 22.671875 25.339844 22.558594 C 25.066406 21.882812 24.226562 21.742188 23.710938 22.292969 C 23.460938 22.558594 23.449219 22.636719 23.449219 24.355469 C 23.449219 26.316406 23.511719 26.167969 22.695312 26.167969 C 21.878906 26.167969 21.964844 26.480469 21.96875 23.535156 C 21.96875 22.183594 21.980469 21.03125 21.996094 20.980469 C 22.019531 20.886719 22.039062 20.882812 22.621094 20.882812 C 23.324219 20.882812 23.359375 20.902344 23.359375 21.308594 L 23.359375 21.542969 L 23.664062 21.261719 C 24.285156 20.6875 25.089844 20.542969 25.804688 20.878906 M 18.058594 21.996094 C 16.417969 22.511719 16.75 24.984375 18.464844 24.984375 C 20.382812 24.988281 20.449219 22.035156 18.53125 21.972656 C 18.332031 21.964844 18.121094 21.976562 18.058594 21.996094 M 32.589844 22.050781 C 32.710938 22.21875 32.691406 25.964844 32.566406 26.082031 C 32.445312 26.199219 31.390625 26.210938 31.257812 26.097656 C 31.175781 26.023438 31.125 22.0625 31.207031 21.984375 C 31.296875 21.898438 32.519531 21.957031 32.589844 22.050781 "/>
<path style=" stroke:none;fill-rule:evenodd;fill:rgb(7.450981%,14.117648%,20.784314%);fill-opacity:1;" d="M 8.53125 22.289062 C 8.527344 24.152344 8.523438 25.757812 8.523438 25.859375 C 8.523438 26.132812 8.550781 26.144531 9.226562 26.144531 C 10.066406 26.144531 9.972656 26.453125 9.972656 23.695312 C 9.972656 22.410156 9.988281 21.351562 10.011719 21.335938 C 10.074219 21.300781 10.109375 21.351562 11.679688 23.699219 C 12.5 24.925781 13.222656 25.980469 13.28125 26.039062 C 13.410156 26.167969 14.644531 26.207031 14.792969 26.085938 C 14.890625 26.011719 14.910156 19.050781 14.816406 18.957031 C 14.757812 18.902344 13.683594 18.882812 13.546875 18.933594 C 13.484375 18.957031 13.476562 19.203125 13.476562 21.292969 C 13.476562 22.617188 13.460938 23.636719 13.4375 23.652344 C 13.398438 23.675781 13.148438 23.316406 11.210938 20.453125 C 10.722656 19.730469 10.265625 19.089844 10.191406 19.023438 L 10.0625 18.90625 L 8.535156 18.90625 L 8.53125 22.289062 M 18.117188 20.757812 C 15.792969 21.011719 14.746094 23.707031 16.335938 25.347656 C 17.894531 26.960938 20.734375 26.308594 21.292969 24.207031 C 21.816406 22.253906 20.230469 20.53125 18.117188 20.757812 M 24.613281 20.75 C 24.296875 20.808594 23.953125 20.996094 23.660156 21.273438 C 23.355469 21.570312 23.320312 21.566406 23.324219 21.25 C 23.328125 20.886719 23.308594 20.878906 22.621094 20.890625 L 22.035156 20.902344 L 22.035156 26.105469 L 22.65625 26.117188 C 23.488281 26.132812 23.40625 26.316406 23.40625 24.476562 C 23.40625 22.757812 23.421875 22.605469 23.667969 22.308594 C 24.023438 21.878906 24.75 21.820312 25.121094 22.199219 C 25.398438 22.480469 25.402344 22.503906 25.425781 24.386719 L 25.449219 26.105469 L 26.070312 26.117188 C 26.476562 26.125 26.714844 26.109375 26.753906 26.082031 C 26.800781 26.042969 26.816406 25.6875 26.828125 24.390625 C 26.839844 22.835938 26.84375 22.742188 26.933594 22.558594 C 27.246094 21.917969 28.082031 21.742188 28.558594 22.21875 C 28.832031 22.496094 28.839844 22.566406 28.839844 24.382812 C 28.839844 25.601562 28.855469 26.035156 28.894531 26.074219 C 28.929688 26.109375 29.136719 26.125 29.535156 26.125 C 29.933594 26.125 30.140625 26.109375 30.179688 26.074219 C 30.28125 25.976562 30.253906 22.328125 30.148438 22.003906 C 29.703125 20.636719 27.972656 20.277344 26.902344 21.324219 L 26.605469 21.617188 L 26.4375 21.398438 C 26.03125 20.871094 25.339844 20.625 24.613281 20.75 M 19.101562 22.078125 C 19.601562 22.3125 19.945312 22.878906 19.945312 23.480469 C 19.945312 25.4375 17.132812 25.546875 16.992188 23.597656 C 16.90625 22.390625 18.03125 21.582031 19.101562 22.078125 M 31.203125 22.054688 C 31.15625 22.226562 31.171875 25.953125 31.222656 26.042969 C 31.277344 26.144531 32.457031 26.171875 32.558594 26.074219 C 32.664062 25.972656 32.632812 22.054688 32.527344 22 C 32.332031 21.902344 31.234375 21.945312 31.203125 22.054688 "/>
<path style=" stroke:none;fill-rule:evenodd;fill:rgb(98.823529%,48.627451%,39.215687%);fill-opacity:1;" d="M 33.523438 15.867188 C 33.558594 15.890625 33.507812 15.894531 33.398438 15.882812 C 33.265625 15.863281 33.238281 15.871094 33.285156 15.902344 C 33.339844 15.9375 33.328125 15.945312 33.230469 15.929688 C 33.164062 15.917969 33.117188 15.925781 33.128906 15.941406 C 33.160156 15.984375 32.800781 16.078125 32.738281 16.042969 C 32.710938 16.027344 32.703125 16.03125 32.71875 16.0625 C 32.753906 16.117188 32.589844 16.175781 32.515625 16.132812 C 32.480469 16.109375 32.476562 16.117188 32.5 16.15625 C 32.527344 16.199219 32.515625 16.207031 32.460938 16.183594 C 32.410156 16.167969 32.394531 16.171875 32.417969 16.207031 C 32.4375 16.238281 32.421875 16.246094 32.375 16.230469 C 32.328125 16.210938 32.304688 16.222656 32.3125 16.253906 C 32.316406 16.28125 32.285156 16.304688 32.242188 16.300781 C 32.199219 16.296875 32.175781 16.3125 32.195312 16.339844 C 32.210938 16.367188 32.195312 16.375 32.148438 16.359375 C 32.105469 16.339844 32.078125 16.351562 32.085938 16.382812 C 32.09375 16.414062 32.054688 16.433594 32.007812 16.4375 C 31.957031 16.4375 31.917969 16.453125 31.917969 16.480469 C 31.914062 16.558594 31.839844 16.632812 31.78125 16.613281 C 31.714844 16.589844 31.523438 16.769531 31.507812 16.867188 C 31.492188 16.96875 31.394531 17.0625 31.339844 17.03125 C 31.3125 17.015625 31.300781 17.015625 31.320312 17.035156 C 31.363281 17.082031 31.226562 17.324219 31.175781 17.292969 C 31.148438 17.28125 31.144531 17.300781 31.160156 17.34375 C 31.179688 17.390625 31.175781 17.40625 31.140625 17.386719 C 31.105469 17.363281 31.097656 17.378906 31.117188 17.429688 C 31.136719 17.476562 31.128906 17.492188 31.09375 17.472656 C 31.058594 17.449219 31.050781 17.464844 31.070312 17.515625 C 31.09375 17.570312 31.085938 17.578125 31.042969 17.554688 C 31 17.53125 30.992188 17.535156 31.015625 17.566406 C 31.050781 17.625 31.003906 17.800781 30.960938 17.773438 C 30.941406 17.761719 30.925781 17.804688 30.921875 17.867188 C 30.921875 17.929688 30.898438 18.113281 30.875 18.269531 C 30.847656 18.449219 30.847656 18.675781 30.875 18.871094 C 30.898438 19.042969 30.917969 19.238281 30.921875 19.300781 C 30.925781 19.363281 30.941406 19.40625 30.960938 19.394531 C 31.003906 19.367188 31.050781 19.542969 31.015625 19.601562 C 30.992188 19.632812 31 19.636719 31.042969 19.613281 C 31.085938 19.589844 31.09375 19.597656 31.070312 19.652344 C 31.050781 19.703125 31.058594 19.71875 31.09375 19.695312 C 31.128906 19.675781 31.136719 19.691406 31.117188 19.738281 C 31.097656 19.789062 31.105469 19.804688 31.140625 19.78125 C 31.171875 19.761719 31.179688 19.773438 31.164062 19.824219 C 31.144531 19.867188 31.15625 19.890625 31.1875 19.882812 C 31.21875 19.878906 31.242188 19.90625 31.238281 19.945312 C 31.234375 19.988281 31.253906 20.015625 31.28125 20.011719 C 31.308594 20.007812 31.332031 20.039062 31.332031 20.085938 C 31.332031 20.136719 31.359375 20.171875 31.394531 20.171875 C 31.460938 20.171875 31.585938 20.320312 31.558594 20.367188 C 31.546875 20.386719 31.566406 20.425781 31.601562 20.453125 C 31.640625 20.484375 31.671875 20.492188 31.671875 20.476562 C 31.671875 20.460938 31.730469 20.488281 31.804688 20.539062 C 31.878906 20.589844 31.9375 20.65625 31.9375 20.683594 C 31.9375 20.738281 31.636719 21.042969 31.558594 21.0625 C 31.535156 21.070312 31.515625 21.105469 31.511719 21.140625 C 31.511719 21.175781 31.488281 21.199219 31.457031 21.195312 C 31.425781 21.1875 31.414062 21.210938 31.433594 21.253906 C 31.453125 21.308594 31.445312 21.316406 31.398438 21.289062 C 31.34375 21.257812 31.34375 21.265625 31.390625 21.320312 C 31.417969 21.355469 31.433594 21.394531 31.417969 21.410156 C 31.402344 21.425781 31.4375 21.425781 31.492188 21.410156 C 31.546875 21.394531 31.582031 21.402344 31.570312 21.425781 C 31.554688 21.445312 31.742188 21.46875 32 21.476562 C 32.25 21.484375 32.496094 21.5 32.546875 21.511719 C 32.609375 21.527344 32.617188 21.523438 32.574219 21.492188 C 32.5 21.445312 32.722656 21.378906 32.800781 21.425781 C 32.835938 21.445312 32.839844 21.433594 32.816406 21.398438 C 32.789062 21.355469 32.800781 21.347656 32.855469 21.371094 C 32.90625 21.386719 32.921875 21.382812 32.898438 21.347656 C 32.878906 21.3125 32.894531 21.308594 32.953125 21.328125 C 33 21.347656 33.023438 21.347656 33.003906 21.328125 C 32.988281 21.3125 32.996094 21.273438 33.023438 21.242188 C 33.078125 21.179688 33.171875 21.160156 33.132812 21.21875 C 33.121094 21.242188 33.164062 21.25 33.230469 21.238281 C 33.308594 21.226562 33.332031 21.234375 33.300781 21.257812 C 33.125 21.375 34.957031 21.339844 35.460938 21.210938 C 35.703125 21.148438 35.925781 21.113281 35.949219 21.125 C 35.976562 21.140625 35.984375 21.132812 35.96875 21.109375 C 35.929688 21.050781 36.183594 20.949219 36.257812 20.992188 C 36.292969 21.015625 36.300781 21.007812 36.273438 20.96875 C 36.246094 20.925781 36.257812 20.917969 36.3125 20.941406 C 36.359375 20.957031 36.378906 20.949219 36.367188 20.925781 C 36.332031 20.875 36.507812 20.785156 36.570312 20.820312 C 36.59375 20.835938 36.609375 20.820312 36.601562 20.789062 C 36.59375 20.757812 36.625 20.734375 36.664062 20.738281 C 36.707031 20.742188 36.738281 20.722656 36.734375 20.695312 C 36.726562 20.667969 36.753906 20.644531 36.792969 20.644531 C 36.882812 20.644531 36.976562 20.582031 36.949219 20.542969 C 36.929688 20.507812 37.265625 20.171875 37.320312 20.171875 C 37.335938 20.171875 37.351562 20.144531 37.351562 20.109375 C 37.351562 20.074219 37.375 20.050781 37.402344 20.054688 C 37.429688 20.058594 37.453125 20.03125 37.449219 19.988281 C 37.445312 19.949219 37.46875 19.921875 37.5 19.929688 C 37.535156 19.933594 37.550781 19.921875 37.535156 19.898438 C 37.503906 19.851562 37.691406 19.460938 37.730469 19.484375 C 37.746094 19.492188 37.757812 19.449219 37.761719 19.386719 C 37.765625 19.324219 37.792969 19.15625 37.824219 19.015625 C 37.894531 18.6875 37.855469 18.179688 37.734375 17.832031 C 37.683594 17.6875 37.65625 17.546875 37.671875 17.523438 C 37.691406 17.492188 37.683594 17.488281 37.644531 17.511719 C 37.601562 17.535156 37.59375 17.527344 37.613281 17.472656 C 37.632812 17.421875 37.625 17.40625 37.589844 17.429688 C 37.558594 17.449219 37.550781 17.4375 37.566406 17.386719 C 37.585938 17.34375 37.574219 17.320312 37.542969 17.328125 C 37.511719 17.332031 37.488281 17.304688 37.492188 17.265625 C 37.496094 17.222656 37.476562 17.195312 37.449219 17.199219 C 37.421875 17.203125 37.398438 17.175781 37.402344 17.132812 C 37.40625 17.09375 37.394531 17.070312 37.375 17.078125 C 37.335938 17.105469 37.191406 16.960938 37.179688 16.878906 C 37.164062 16.789062 37.101562 16.710938 37.0625 16.734375 C 37.011719 16.765625 36.789062 16.59375 36.804688 16.53125 C 36.808594 16.503906 36.773438 16.480469 36.722656 16.480469 C 36.675781 16.480469 36.636719 16.457031 36.644531 16.429688 C 36.648438 16.402344 36.617188 16.382812 36.574219 16.386719 C 36.535156 16.390625 36.503906 16.367188 36.511719 16.335938 C 36.519531 16.304688 36.503906 16.289062 36.480469 16.304688 C 36.417969 16.339844 35.9375 16.105469 35.96875 16.054688 C 35.984375 16.03125 35.972656 16.027344 35.945312 16.042969 C 35.871094 16.089844 35.515625 15.980469 35.585938 15.933594 C 35.625 15.910156 35.601562 15.90625 35.53125 15.921875 C 35.46875 15.933594 35.316406 15.921875 35.195312 15.894531 C 34.9375 15.832031 33.4375 15.808594 33.523438 15.867188 M 34.527344 18.175781 C 34.566406 18.175781 34.582031 18.195312 34.566406 18.21875 C 34.550781 18.242188 34.566406 18.25 34.601562 18.238281 C 34.683594 18.207031 34.878906 18.410156 34.835938 18.480469 C 34.8125 18.515625 34.820312 18.523438 34.851562 18.503906 C 34.890625 18.480469 34.90625 18.53125 34.90625 18.671875 C 34.90625 18.808594 34.890625 18.859375 34.851562 18.835938 C 34.820312 18.816406 34.8125 18.824219 34.835938 18.859375 C 34.878906 18.929688 34.683594 19.132812 34.601562 19.101562 C 34.566406 19.089844 34.550781 19.097656 34.566406 19.117188 C 34.605469 19.179688 34.394531 19.207031 34.222656 19.164062 C 34.039062 19.113281 33.890625 18.976562 33.941406 18.902344 C 33.960938 18.871094 33.957031 18.859375 33.925781 18.878906 C 33.902344 18.894531 33.867188 18.875 33.851562 18.839844 C 33.792969 18.6875 33.84375 18.410156 33.921875 18.457031 C 33.941406 18.46875 33.949219 18.453125 33.9375 18.421875 C 33.890625 18.308594 34.242188 18.109375 34.402344 18.15625 C 34.433594 18.167969 34.492188 18.175781 34.527344 18.175781 M 36.199219 18.246094 C 36.253906 18.28125 36.285156 18.328125 36.269531 18.355469 C 36.25 18.382812 36.257812 18.390625 36.289062 18.375 C 36.359375 18.332031 36.433594 18.488281 36.433594 18.683594 C 36.433594 18.878906 36.242188 19.144531 36.132812 19.101562 C 36.097656 19.089844 36.078125 19.097656 36.09375 19.117188 C 36.128906 19.175781 35.925781 19.207031 35.777344 19.167969 C 35.707031 19.148438 35.648438 19.113281 35.65625 19.089844 C 35.660156 19.066406 35.632812 19.046875 35.59375 19.050781 C 35.484375 19.058594 35.34375 18.78125 35.371094 18.613281 C 35.402344 18.417969 35.523438 18.25 35.605469 18.28125 C 35.648438 18.296875 35.660156 18.285156 35.640625 18.253906 C 35.617188 18.21875 35.632812 18.214844 35.683594 18.230469 C 35.726562 18.246094 35.75 18.242188 35.738281 18.222656 C 35.671875 18.121094 36.019531 18.140625 36.199219 18.246094 M 33.074219 18.25 C 33.070312 18.277344 33.089844 18.292969 33.125 18.28125 C 33.195312 18.253906 33.304688 18.371094 33.265625 18.433594 C 33.25 18.457031 33.261719 18.472656 33.296875 18.46875 C 33.335938 18.457031 33.359375 18.515625 33.367188 18.640625 C 33.382812 18.851562 33.199219 19.148438 33.078125 19.101562 C 33.042969 19.089844 33.023438 19.097656 33.039062 19.117188 C 33.070312 19.171875 32.859375 19.214844 32.726562 19.183594 C 32.664062 19.167969 32.625 19.136719 32.636719 19.117188 C 32.652344 19.097656 32.632812 19.089844 32.597656 19.101562 C 32.488281 19.144531 32.296875 18.878906 32.296875 18.6875 C 32.296875 18.589844 32.316406 18.523438 32.339844 18.539062 C 32.363281 18.550781 32.371094 18.527344 32.359375 18.480469 C 32.320312 18.335938 32.59375 18.171875 32.859375 18.1875 C 33.007812 18.191406 33.082031 18.214844 33.074219 18.25 M 32.039062 21.558594 C 32.109375 21.566406 32.21875 21.566406 32.289062 21.558594 C 32.355469 21.546875 32.300781 21.539062 32.164062 21.539062 C 32.027344 21.539062 31.972656 21.546875 32.039062 21.558594 "/>
<path style=" stroke:none;fill-rule:evenodd;fill:rgb(98.823529%,40.000001%,31.37255%);fill-opacity:1;" d="M 33.539062 15.835938 C 30.96875 16.300781 29.925781 18.730469 31.589844 20.386719 C 31.945312 20.742188 31.925781 20.691406 31.761719 20.820312 C 31.636719 20.925781 31.355469 21.292969 31.355469 21.359375 C 31.355469 21.566406 32.492188 21.578125 32.882812 21.375 C 33.125 21.246094 33.132812 21.246094 33.378906 21.304688 C 34.828125 21.660156 36.722656 21.058594 37.453125 20.011719 C 38.96875 17.84375 36.570312 15.289062 33.539062 15.835938 M 34.925781 15.855469 C 38.601562 16.359375 38.929688 20.394531 35.363281 21.234375 C 34.875 21.351562 33.84375 21.363281 33.378906 21.257812 C 33.105469 21.199219 33.078125 21.199219 32.980469 21.273438 C 32.703125 21.480469 31.914062 21.550781 31.523438 21.402344 C 31.367188 21.34375 31.398438 21.269531 31.722656 20.945312 C 31.980469 20.683594 31.984375 20.667969 31.789062 20.523438 C 31.574219 20.371094 31.230469 19.921875 31.085938 19.613281 C 30.109375 17.542969 32.214844 15.488281 34.925781 15.855469 M 34.1875 18.1875 C 34.097656 18.21875 33.988281 18.300781 33.929688 18.386719 C 33.546875 18.925781 34.351562 19.484375 34.789062 18.984375 C 35.011719 18.738281 34.886719 18.28125 34.578125 18.195312 C 34.371094 18.140625 34.339844 18.140625 34.1875 18.1875 M 35.675781 18.21875 C 35.066406 18.480469 35.472656 19.394531 36.089844 19.148438 C 36.433594 19.011719 36.546875 18.613281 36.316406 18.351562 C 36.214844 18.234375 36.160156 18.207031 35.9375 18.152344 C 35.902344 18.144531 35.785156 18.171875 35.675781 18.21875 M 32.480469 18.296875 C 32.269531 18.464844 32.234375 18.78125 32.40625 18.980469 C 32.652344 19.257812 33.039062 19.253906 33.265625 18.972656 C 33.652344 18.488281 32.972656 17.902344 32.480469 18.296875 M 33.179688 18.363281 C 33.496094 18.667969 33.292969 19.121094 32.839844 19.121094 C 32.625 19.121094 32.480469 19.042969 32.394531 18.875 C 32.238281 18.582031 32.484375 18.21875 32.839844 18.21875 C 32.992188 18.21875 33.054688 18.246094 33.179688 18.363281 M 34.722656 18.351562 C 35.03125 18.644531 34.820312 19.121094 34.378906 19.121094 C 34.105469 19.121094 33.871094 18.914062 33.871094 18.671875 C 33.871094 18.273438 34.421875 18.066406 34.722656 18.351562 M 36.164062 18.289062 C 36.304688 18.371094 36.386719 18.511719 36.386719 18.675781 C 36.386719 19.191406 35.613281 19.292969 35.445312 18.800781 C 35.304688 18.398438 35.765625 18.066406 36.164062 18.289062 "/>
<path style=" stroke:none;fill-rule:evenodd;fill:rgb(57.254905%,59.607846%,61.960787%);fill-opacity:1;" d="M 8.511719 22.277344 C 8.511719 24.144531 8.515625 24.902344 8.523438 23.960938 C 8.53125 23.019531 8.53125 21.492188 8.523438 20.566406 C 8.515625 19.640625 8.511719 20.414062 8.511719 22.277344 M 21.988281 23.503906 C 21.988281 24.886719 21.992188 25.453125 22 24.761719 C 22.007812 24.070312 22.007812 22.9375 22 22.246094 C 21.992188 21.554688 21.988281 22.121094 21.988281 23.503906 M 32.632812 24.0625 C 32.632812 25.136719 32.640625 25.578125 32.648438 25.039062 C 32.652344 24.503906 32.652344 23.621094 32.648438 23.085938 C 32.640625 22.546875 32.632812 22.988281 32.632812 24.0625 M 30.253906 24.191406 C 30.253906 25.195312 30.257812 25.605469 30.265625 25.105469 C 30.273438 24.601562 30.273438 23.78125 30.265625 23.277344 C 30.257812 22.777344 30.253906 23.1875 30.253906 24.191406 M 23.425781 24.40625 C 23.425781 25.269531 23.429688 25.621094 23.4375 25.191406 C 23.445312 24.757812 23.445312 24.054688 23.4375 23.621094 C 23.429688 23.191406 23.425781 23.542969 23.425781 24.40625 M 26.839844 24.449219 C 26.839844 25.289062 26.84375 25.632812 26.851562 25.210938 C 26.859375 24.792969 26.859375 24.105469 26.851562 23.6875 C 26.84375 23.265625 26.839844 23.609375 26.839844 24.449219 M 15.554688 23.484375 C 15.554688 23.601562 15.566406 23.644531 15.574219 23.578125 C 15.585938 23.511719 15.585938 23.417969 15.574219 23.363281 C 15.5625 23.3125 15.554688 23.363281 15.554688 23.484375 M 21.394531 23.484375 C 21.394531 23.601562 21.40625 23.644531 21.414062 23.578125 C 21.425781 23.511719 21.425781 23.417969 21.414062 23.363281 C 21.402344 23.3125 21.394531 23.363281 21.394531 23.484375 M 20.527344 25.46875 L 20.371094 25.632812 L 20.539062 25.484375 C 20.699219 25.34375 20.730469 25.308594 20.695312 25.308594 C 20.6875 25.308594 20.613281 25.382812 20.527344 25.46875 M 22.429688 26.15625 C 22.597656 26.164062 22.859375 26.164062 23.011719 26.15625 C 23.167969 26.148438 23.027344 26.140625 22.707031 26.140625 C 22.386719 26.140625 22.261719 26.148438 22.429688 26.15625 M 25.796875 26.15625 C 25.964844 26.164062 26.234375 26.164062 26.402344 26.15625 C 26.570312 26.148438 26.433594 26.140625 26.097656 26.140625 C 25.765625 26.140625 25.628906 26.148438 25.796875 26.15625 M 29.257812 26.15625 C 29.425781 26.164062 29.6875 26.164062 29.839844 26.15625 C 29.996094 26.148438 29.855469 26.140625 29.535156 26.140625 C 29.214844 26.140625 29.089844 26.148438 29.257812 26.15625 M 31.589844 26.15625 C 31.757812 26.164062 32.03125 26.164062 32.199219 26.15625 C 32.363281 26.148438 32.226562 26.140625 31.894531 26.140625 C 31.5625 26.140625 31.425781 26.148438 31.589844 26.15625 "/>
</g>
</svg>
